<svg width="17" height="11" viewBox="0 0 17 11" fill="none" xmlns="http://www.w3.org/2000/svg">
<path fill-rule="evenodd" clip-rule="evenodd" d="M16.0219 0.978112C16.5621 1.5183 16.5621 2.39412 16.0219 2.9343L9.50127 9.45494C8.96108 9.99512 8.08527 9.99512 7.54508 9.45493C7.00489 8.91475 7.00489 8.03893 7.54508 7.49874L14.0657 0.978112C14.6059 0.437925 15.4817 0.437925 16.0219 0.978112Z" fill="white"/>
<path fill-rule="evenodd" clip-rule="evenodd" d="M0.978204 0.978095C1.51839 0.437908 2.39421 0.437908 2.93439 0.978095L9.45503 7.49873C9.99521 8.03892 9.99521 8.91473 9.45503 9.45492C8.91484 9.99511 8.03902 9.99511 7.49884 9.45492L0.978203 2.93429C0.438016 2.3941 0.438017 1.51828 0.978204 0.978095Z" fill="white"/>
</svg>
